<mxfile host="app.diagrams.net" modified="2023-11-18T04:08:40.831Z" agent="Mozilla/5.0 (Windows NT 10.0; Win64; x64) AppleWebKit/537.36 (KHTML, like Gecko) Chrome/119.0.0.0 Safari/537.36" etag="s7bDSAjvfkfWocYyHOQz" version="22.1.3" type="device">
  <diagram name="Page-1" id="GW0CvmTKzJUiaYzBmrlH">
    <mxGraphModel dx="1195" dy="652" grid="1" gridSize="10" guides="1" tooltips="1" connect="1" arrows="1" fold="1" page="1" pageScale="1" pageWidth="850" pageHeight="1100" math="0" shadow="0">
      <root>
        <mxCell id="0" />
        <mxCell id="1" parent="0" />
        <mxCell id="W2gwUO-j8Dw1JS5upONy-9" style="edgeStyle=orthogonalEdgeStyle;rounded=0;orthogonalLoop=1;jettySize=auto;html=1;entryX=0;entryY=0.5;entryDx=0;entryDy=0;" edge="1" parent="1" source="W2gwUO-j8Dw1JS5upONy-1" target="W2gwUO-j8Dw1JS5upONy-5">
          <mxGeometry relative="1" as="geometry" />
        </mxCell>
        <mxCell id="W2gwUO-j8Dw1JS5upONy-13" style="edgeStyle=orthogonalEdgeStyle;rounded=0;orthogonalLoop=1;jettySize=auto;html=1;entryX=0;entryY=0.5;entryDx=0;entryDy=0;" edge="1" parent="1" source="W2gwUO-j8Dw1JS5upONy-1" target="W2gwUO-j8Dw1JS5upONy-2">
          <mxGeometry relative="1" as="geometry" />
        </mxCell>
        <mxCell id="W2gwUO-j8Dw1JS5upONy-1" value="Inicio&lt;br&gt;" style="rounded=0;whiteSpace=wrap;html=1;" vertex="1" parent="1">
          <mxGeometry x="40" y="280" width="80" height="40" as="geometry" />
        </mxCell>
        <mxCell id="W2gwUO-j8Dw1JS5upONy-14" style="edgeStyle=orthogonalEdgeStyle;rounded=0;orthogonalLoop=1;jettySize=auto;html=1;entryX=0;entryY=0.5;entryDx=0;entryDy=0;" edge="1" parent="1" source="W2gwUO-j8Dw1JS5upONy-2" target="W2gwUO-j8Dw1JS5upONy-3">
          <mxGeometry relative="1" as="geometry" />
        </mxCell>
        <mxCell id="W2gwUO-j8Dw1JS5upONy-15" style="edgeStyle=orthogonalEdgeStyle;rounded=0;orthogonalLoop=1;jettySize=auto;html=1;entryX=0;entryY=0.5;entryDx=0;entryDy=0;" edge="1" parent="1" source="W2gwUO-j8Dw1JS5upONy-2" target="W2gwUO-j8Dw1JS5upONy-4">
          <mxGeometry relative="1" as="geometry" />
        </mxCell>
        <mxCell id="W2gwUO-j8Dw1JS5upONy-2" value="Registro de usuarios" style="rounded=0;whiteSpace=wrap;html=1;" vertex="1" parent="1">
          <mxGeometry x="160" y="200" width="80" height="40" as="geometry" />
        </mxCell>
        <mxCell id="W2gwUO-j8Dw1JS5upONy-17" style="edgeStyle=orthogonalEdgeStyle;rounded=0;orthogonalLoop=1;jettySize=auto;html=1;entryX=0;entryY=0.5;entryDx=0;entryDy=0;" edge="1" parent="1" source="W2gwUO-j8Dw1JS5upONy-3" target="W2gwUO-j8Dw1JS5upONy-16">
          <mxGeometry relative="1" as="geometry" />
        </mxCell>
        <mxCell id="W2gwUO-j8Dw1JS5upONy-3" value="Perfil de cliente" style="rounded=0;whiteSpace=wrap;html=1;" vertex="1" parent="1">
          <mxGeometry x="280" y="160" width="80" height="40" as="geometry" />
        </mxCell>
        <mxCell id="W2gwUO-j8Dw1JS5upONy-18" style="edgeStyle=orthogonalEdgeStyle;rounded=0;orthogonalLoop=1;jettySize=auto;html=1;entryX=0;entryY=0.5;entryDx=0;entryDy=0;" edge="1" parent="1" source="W2gwUO-j8Dw1JS5upONy-4" target="W2gwUO-j8Dw1JS5upONy-16">
          <mxGeometry relative="1" as="geometry" />
        </mxCell>
        <mxCell id="W2gwUO-j8Dw1JS5upONy-20" style="edgeStyle=orthogonalEdgeStyle;rounded=0;orthogonalLoop=1;jettySize=auto;html=1;entryX=0;entryY=0.5;entryDx=0;entryDy=0;" edge="1" parent="1" source="W2gwUO-j8Dw1JS5upONy-4" target="W2gwUO-j8Dw1JS5upONy-19">
          <mxGeometry relative="1" as="geometry" />
        </mxCell>
        <mxCell id="W2gwUO-j8Dw1JS5upONy-4" value="Perfil de proveedor" style="rounded=0;whiteSpace=wrap;html=1;" vertex="1" parent="1">
          <mxGeometry x="280" y="240" width="80" height="40" as="geometry" />
        </mxCell>
        <mxCell id="W2gwUO-j8Dw1JS5upONy-10" style="edgeStyle=orthogonalEdgeStyle;rounded=0;orthogonalLoop=1;jettySize=auto;html=1;entryX=0;entryY=0.5;entryDx=0;entryDy=0;" edge="1" parent="1" source="W2gwUO-j8Dw1JS5upONy-5" target="W2gwUO-j8Dw1JS5upONy-6">
          <mxGeometry relative="1" as="geometry" />
        </mxCell>
        <mxCell id="W2gwUO-j8Dw1JS5upONy-11" style="edgeStyle=orthogonalEdgeStyle;rounded=0;orthogonalLoop=1;jettySize=auto;html=1;entryX=0;entryY=0.5;entryDx=0;entryDy=0;" edge="1" parent="1" source="W2gwUO-j8Dw1JS5upONy-5" target="W2gwUO-j8Dw1JS5upONy-7">
          <mxGeometry relative="1" as="geometry" />
        </mxCell>
        <mxCell id="W2gwUO-j8Dw1JS5upONy-5" value="Panel de clientes" style="rounded=0;whiteSpace=wrap;html=1;" vertex="1" parent="1">
          <mxGeometry x="160" y="360" width="80" height="40" as="geometry" />
        </mxCell>
        <mxCell id="W2gwUO-j8Dw1JS5upONy-6" value="Listar proveedores" style="rounded=0;whiteSpace=wrap;html=1;" vertex="1" parent="1">
          <mxGeometry x="280" y="320" width="80" height="40" as="geometry" />
        </mxCell>
        <mxCell id="W2gwUO-j8Dw1JS5upONy-12" style="edgeStyle=orthogonalEdgeStyle;rounded=0;orthogonalLoop=1;jettySize=auto;html=1;entryX=0;entryY=0.5;entryDx=0;entryDy=0;" edge="1" parent="1" source="W2gwUO-j8Dw1JS5upONy-7" target="W2gwUO-j8Dw1JS5upONy-8">
          <mxGeometry relative="1" as="geometry" />
        </mxCell>
        <mxCell id="W2gwUO-j8Dw1JS5upONy-7" value="Ver perfil del proveedor" style="rounded=0;whiteSpace=wrap;html=1;" vertex="1" parent="1">
          <mxGeometry x="280" y="400" width="80" height="40" as="geometry" />
        </mxCell>
        <mxCell id="W2gwUO-j8Dw1JS5upONy-8" value="Ver productos del proveedor" style="rounded=0;whiteSpace=wrap;html=1;" vertex="1" parent="1">
          <mxGeometry x="400" y="440" width="80" height="40" as="geometry" />
        </mxCell>
        <mxCell id="W2gwUO-j8Dw1JS5upONy-16" value="Actualización de datos" style="rounded=0;whiteSpace=wrap;html=1;" vertex="1" parent="1">
          <mxGeometry x="400" y="200" width="80" height="40" as="geometry" />
        </mxCell>
        <mxCell id="W2gwUO-j8Dw1JS5upONy-25" style="edgeStyle=orthogonalEdgeStyle;rounded=0;orthogonalLoop=1;jettySize=auto;html=1;entryX=0;entryY=0.5;entryDx=0;entryDy=0;" edge="1" parent="1" source="W2gwUO-j8Dw1JS5upONy-19" target="W2gwUO-j8Dw1JS5upONy-23">
          <mxGeometry relative="1" as="geometry" />
        </mxCell>
        <mxCell id="W2gwUO-j8Dw1JS5upONy-26" style="edgeStyle=orthogonalEdgeStyle;rounded=0;orthogonalLoop=1;jettySize=auto;html=1;entryX=0;entryY=0.5;entryDx=0;entryDy=0;" edge="1" parent="1" source="W2gwUO-j8Dw1JS5upONy-19" target="W2gwUO-j8Dw1JS5upONy-22">
          <mxGeometry relative="1" as="geometry" />
        </mxCell>
        <mxCell id="W2gwUO-j8Dw1JS5upONy-27" style="edgeStyle=orthogonalEdgeStyle;rounded=0;orthogonalLoop=1;jettySize=auto;html=1;entryX=0;entryY=0.5;entryDx=0;entryDy=0;" edge="1" parent="1" source="W2gwUO-j8Dw1JS5upONy-19" target="W2gwUO-j8Dw1JS5upONy-24">
          <mxGeometry relative="1" as="geometry" />
        </mxCell>
        <mxCell id="W2gwUO-j8Dw1JS5upONy-19" value="Gestión de productos" style="rounded=0;whiteSpace=wrap;html=1;" vertex="1" parent="1">
          <mxGeometry x="400" y="280" width="80" height="40" as="geometry" />
        </mxCell>
        <mxCell id="W2gwUO-j8Dw1JS5upONy-22" value="Gestión de productos" style="rounded=0;whiteSpace=wrap;html=1;" vertex="1" parent="1">
          <mxGeometry x="520" y="200" width="80" height="40" as="geometry" />
        </mxCell>
        <mxCell id="W2gwUO-j8Dw1JS5upONy-23" value="Gestión de productos" style="rounded=0;whiteSpace=wrap;html=1;" vertex="1" parent="1">
          <mxGeometry x="520" y="280" width="80" height="40" as="geometry" />
        </mxCell>
        <mxCell id="W2gwUO-j8Dw1JS5upONy-24" value="Gestión de productos" style="rounded=0;whiteSpace=wrap;html=1;" vertex="1" parent="1">
          <mxGeometry x="520" y="360" width="80" height="40" as="geometry" />
        </mxCell>
      </root>
    </mxGraphModel>
  </diagram>
</mxfile>
